<svg width="199" height="28" viewBox="0 0 199 28" fill="none" xmlns="http://www.w3.org/2000/svg">
<path d="M44.8476 18.1878C44.8476 19.034 44.6746 19.79 44.3286 20.456C43.9905 21.122 43.5226 21.6743 42.9251 22.1131C42.2331 22.6302 41.4704 22.9984 40.6369 23.2178C39.8113 23.4371 38.7616 23.5468 37.4878 23.5468H29.8213V6.04776H36.6385C38.0539 6.04776 39.0879 6.09477 39.7405 6.18879C40.401 6.2828 41.0536 6.49043 41.6984 6.81165C42.3668 7.14855 42.8621 7.60297 43.1845 8.17491C43.5148 8.73902 43.6799 9.38539 43.6799 10.114C43.6799 10.9602 43.4558 11.7084 43.0076 12.3587C42.5594 13.0012 41.9264 13.5026 41.1087 13.863V13.957C42.2567 14.1842 43.1649 14.6543 43.8332 15.3673C44.5095 16.0802 44.8476 17.0204 44.8476 18.1878ZM39.0446 10.9954C39.0446 10.7056 38.9699 10.4157 38.8205 10.1258C38.679 9.8359 38.4235 9.62044 38.0539 9.47941C37.7236 9.35405 37.3108 9.28746 36.8155 9.27962C36.328 9.26395 35.6399 9.25612 34.7514 9.25612H34.3268V12.9581H35.0345C35.75 12.9581 36.3594 12.9463 36.8626 12.9228C37.3659 12.8993 37.763 12.821 38.0539 12.6878C38.4628 12.5076 38.7301 12.2764 38.8559 11.9944C38.9817 11.7045 39.0446 11.3715 39.0446 10.9954ZM40.1533 18.1173C40.1533 17.561 40.0432 17.134 39.8231 16.8363C39.6108 16.5307 39.2451 16.3035 38.7262 16.1547C38.3724 16.0528 37.8848 15.998 37.2637 15.9901C36.6425 15.9823 35.9938 15.9784 35.3176 15.9784H34.3268V20.3385H34.6571C35.9309 20.3385 36.843 20.3346 37.3934 20.3267C37.9438 20.3189 38.451 20.217 38.9149 20.0212C39.3867 19.8253 39.7091 19.5667 39.8821 19.2455C40.0629 18.9165 40.1533 18.5404 40.1533 18.1173Z" fill="#333333"/>
<path d="M61.183 23.5468H56.937V22.0896C56.1507 22.685 55.4312 23.1394 54.7786 23.4528C54.126 23.7584 53.3475 23.9112 52.4433 23.9112C50.9807 23.9112 49.8524 23.492 49.0582 22.6537C48.2719 21.8153 47.8788 20.5774 47.8788 18.94V10.3491H52.1484V16.8951C52.1484 17.561 52.1681 18.1173 52.2074 18.5639C52.2546 19.0026 52.3568 19.367 52.514 19.6568C52.6634 19.9467 52.8875 20.1583 53.1863 20.2915C53.493 20.4247 53.9176 20.4913 54.4601 20.4913C54.8218 20.4913 55.2229 20.4247 55.6632 20.2915C56.1035 20.1583 56.5281 19.9624 56.937 19.7039V10.3491H61.183V23.5468Z" fill="#333333"/>
<path d="M76.6339 23.5468H64.1907V20.8321L71.173 13.4399H64.4737V10.3491H76.5042V13.0168L69.6279 20.3972H76.6339V23.5468Z" fill="#333333"/>
<path d="M87.6383 20.1034V17.3534C87.0643 17.4004 86.4431 17.467 85.7747 17.5532C85.1064 17.6315 84.5992 17.7256 84.2532 17.8352C83.8286 17.9684 83.5023 18.1643 83.2743 18.4229C83.0541 18.6736 82.944 19.0066 82.944 19.4218C82.944 19.696 82.9676 19.9193 83.0148 20.0917C83.062 20.264 83.1799 20.4286 83.3686 20.5853C83.5495 20.742 83.7657 20.8595 84.0173 20.9378C84.2689 21.0083 84.6621 21.0436 85.1968 21.0436C85.6214 21.0436 86.0499 20.9574 86.4824 20.7851C86.9227 20.6127 87.308 20.3855 87.6383 20.1034ZM87.6383 22.1483C87.4102 22.3207 87.1272 22.5283 86.789 22.7712C86.4509 23.0141 86.1325 23.206 85.8337 23.347C85.4169 23.5351 84.9845 23.6722 84.5363 23.7584C84.0881 23.8524 83.5967 23.8994 83.062 23.8994C81.8039 23.8994 80.7502 23.5116 79.901 22.7359C79.0518 21.9603 78.6272 20.9692 78.6272 19.7626C78.6272 18.7989 78.8434 18.0115 79.2759 17.4004C79.7084 16.7893 80.3217 16.3075 81.1159 15.9549C81.9022 15.6023 82.8772 15.3516 84.0409 15.2027C85.2046 15.0539 86.4116 14.9442 87.6618 14.8737V14.8032C87.6618 14.0745 87.363 13.5731 86.7655 13.2989C86.1679 13.0168 85.2872 12.8758 84.1235 12.8758C83.4237 12.8758 82.6767 13.0012 81.8825 13.2519C81.0883 13.4948 80.5183 13.6828 80.1723 13.816H79.7831V10.6311C80.2313 10.5136 80.9586 10.3765 81.9651 10.2198C82.9794 10.0553 83.9937 9.973 85.0081 9.973C87.422 9.973 89.1637 10.3452 90.2331 11.0895C91.3103 11.8259 91.8489 12.9855 91.8489 14.5681V23.5468H87.6383V22.1483Z" fill="#333333"/>
<path d="M102.653 23.8994C101.497 23.8994 100.439 23.7623 99.48 23.4881C98.5286 23.2139 97.699 22.7908 96.9913 22.2188C96.2915 21.6469 95.749 20.9261 95.3637 20.0564C94.9784 19.1868 94.7858 18.1682 94.7858 17.0008C94.7858 15.7708 94.9902 14.7092 95.3991 13.816C95.8158 12.9228 96.3938 12.1824 97.1329 11.5948C97.8484 11.0385 98.674 10.6311 99.6097 10.3726C100.545 10.114 101.517 9.98476 102.523 9.98476C103.427 9.98476 104.261 10.0827 105.023 10.2786C105.786 10.4744 106.498 10.7291 107.158 11.0425V14.6504H106.557C106.392 14.5094 106.191 14.3448 105.955 14.1568C105.727 13.9688 105.444 13.7846 105.106 13.6044C104.784 13.4321 104.43 13.2911 104.045 13.1814C103.659 13.0638 103.211 13.0051 102.7 13.0051C101.568 13.0051 100.695 13.3655 100.082 14.0863C99.4761 14.7993 99.1733 15.7708 99.1733 17.0008C99.1733 18.2701 99.4839 19.2338 100.105 19.8919C100.734 20.55 101.623 20.8791 102.771 20.8791C103.305 20.8791 103.785 20.8203 104.21 20.7028C104.642 20.5774 105 20.4325 105.283 20.268C105.55 20.1113 105.786 19.9467 105.991 19.7744C106.195 19.602 106.384 19.4336 106.557 19.269H107.158V22.877C106.49 23.1903 105.79 23.4371 105.059 23.6173C104.335 23.8054 103.533 23.8994 102.653 23.8994Z" fill="#333333"/>
<path d="M123.281 23.5468H119.012V17.0008C119.012 16.4681 118.984 15.9392 118.929 15.4143C118.874 14.8815 118.78 14.4898 118.646 14.2391C118.489 13.9492 118.257 13.7376 117.95 13.6044C117.651 13.4713 117.231 13.4047 116.688 13.4047C116.303 13.4047 115.91 13.4673 115.509 13.5927C115.116 13.718 114.687 13.9178 114.223 14.1921V23.5468H109.977V5.26036H114.223V11.8064C114.978 11.2187 115.701 10.7682 116.393 10.4548C117.093 10.1415 117.868 9.98476 118.717 9.98476C120.148 9.98476 121.265 10.4 122.067 11.2305C122.876 12.061 123.281 13.3028 123.281 14.956V23.5468Z" fill="#333333"/>
<path d="M131.443 23.5468H127.197V10.3491H131.443V23.5468ZM131.561 8.46872H127.079V5.26036H131.561V8.46872Z" fill="#333333"/>
<path d="M159.915 23.5468H155.551L148.097 11.5361V23.5468H143.946V6.04776H149.359L155.764 16.0724V6.04776H159.915V23.5468Z" fill="#333333"/>
<path d="M177.206 17.7295H167.487C167.55 18.7637 167.944 19.555 168.667 20.1034C169.398 20.6519 170.471 20.9261 171.887 20.9261C172.783 20.9261 173.652 20.7655 174.493 20.4442C175.335 20.123 175.999 19.7783 176.487 19.41H176.959V22.8064C175.999 23.1903 175.095 23.4685 174.246 23.6408C173.397 23.8132 172.457 23.8994 171.427 23.8994C168.769 23.8994 166.733 23.304 165.317 22.1131C163.902 20.9222 163.194 19.2259 163.194 17.0243C163.194 14.8463 163.863 13.1226 165.199 11.8534C166.544 10.5763 168.384 9.93775 170.719 9.93775C172.874 9.93775 174.493 10.4823 175.579 11.5713C176.664 12.6525 177.206 14.2116 177.206 16.2487V17.7295ZM172.984 15.2498C172.96 14.3644 172.74 13.6985 172.323 13.2519C171.907 12.8053 171.258 12.582 170.377 12.582C169.559 12.582 168.887 12.7935 168.36 13.2166C167.833 13.6397 167.539 14.3174 167.476 15.2498H172.984Z" fill="#333333"/>
<path d="M188.788 8.36295H188.47C188.281 8.30811 188.034 8.24543 187.727 8.17491C187.428 8.1044 187.106 8.06914 186.76 8.06914C185.926 8.06914 185.36 8.218 185.061 8.51573C184.77 8.81345 184.625 9.38931 184.625 10.2433V10.3491H187.904V13.2166H184.767V23.5468H180.52V13.2166H178.704V10.3491H180.52V9.98476C180.52 8.37078 180.949 7.1603 181.806 6.35332C182.671 5.54633 183.976 5.14284 185.722 5.14284C186.351 5.14284 186.921 5.16634 187.432 5.21335C187.943 5.25253 188.395 5.30737 188.788 5.37788V8.36295Z" fill="#333333"/>
<path d="M198.885 23.4293C198.429 23.5468 197.945 23.6369 197.434 23.6996C196.923 23.7701 196.298 23.8054 195.559 23.8054C193.907 23.8054 192.677 23.4724 191.867 22.8064C191.065 22.1405 190.664 21.0005 190.664 19.3865V13.2166H188.918V10.3491H190.664V6.57661H194.91V10.3491H198.885V13.2166H194.91V17.894C194.91 18.3563 194.914 18.7598 194.922 19.1045C194.93 19.4492 194.992 19.7587 195.11 20.0329C195.22 20.3071 195.413 20.5265 195.688 20.691C195.971 20.8477 196.38 20.9261 196.915 20.9261C197.135 20.9261 197.422 20.8791 197.776 20.7851C198.138 20.691 198.389 20.6049 198.531 20.5265H198.885V23.4293Z" fill="#333333"/>
<path d="M11.0721 11.952C13.8923 10.7101 16.5575 9.28584 17.6307 5.86774H0V23.528H3.07658C3.07658 15.5524 7.32775 13.5984 11.0721 11.952Z" fill="url(#paint0_linear_119_280)"/>
<path d="M11.7216 13.1825C8.0309 14.8061 4.48926 16.1221 4.48926 23.528H18.4829V7.83315C16.6942 10.8354 14.3093 12.0488 11.7216 13.1825Z" fill="url(#paint1_linear_119_280)"/>
<defs>
<linearGradient id="paint0_linear_119_280" x1="8.32347" y1="-4.19289" x2="9.12365" y2="29.4716" gradientUnits="userSpaceOnUse">
<stop stop-color="#0077E7"/>
<stop offset="0.99" stop-color="#010281"/>
</linearGradient>
<linearGradient id="paint1_linear_119_280" x1="11.4891" y1="7.22928" x2="11.4891" y2="26.7011" gradientUnits="userSpaceOnUse">
<stop stop-color="#262626"/>
<stop offset="0.99"/>
</linearGradient>
</defs>
</svg>
